<svg clip-rule="evenodd" fill-rule="evenodd" height="1.707in" image-rendering="optimizeQuality" shape-rendering="geometricPrecision" text-rendering="geometricPrecision" viewBox="0 0 1707 1707" width="1.707in" xmlns="http://www.w3.org/2000/svg"><g id="Layer_x0020_1"><path d="m1203 1133c-26 0-54-10-73-30l-277-277-275 277c-40 40-107 40-148 0-20-20-31-46-31-74s11-54 31-74l350-350c40-40 107-40 148 0l350 350c20 20 31 46 31 74s-11 54-31 74c-21 19-48 30-75 30zm-340 443c-11 0-19-8-19-19s8-20 19-21c65-2 129-11 192-29 11-3 22 2 25 14 2 11-3 22-14 25-65 19-134 29-203 30zm-197-25c-2 0-4 0-6-1-66-18-129-46-187-82-10-6-13-18-7-28 5-10 18-12 28-7 55 35 115 61 177 78 12 3 17 14 14 25-2 10-11 15-19 15zm575-90c-7 0-13-3-17-8-5-10-4-23 6-28 54-36 102-79 144-128 7-8 20-10 28-3s10 20 3 28c-45 53-96 99-153 136-4 1-8 3-11 3zm-910-118c-5 0-11-3-15-7-46-51-85-108-114-171-4-10 0-22 10-26 9-4 22 0 26 9 28 59 64 113 108 162 7 8 7 20-1 27-5 4-10 6-14 6zm1165-183c-2 0-5 0-8-2-10-4-15-17-10-26 27-60 45-122 53-186 1-11 11-18 22-17s18 11 17 22c-10 68-28 135-56 197-4 7-11 12-18 12zm-1336-173c-9 0-18-7-19-16-6-39-10-78-10-117 0-29 2-60 6-87 1-12 11-20 22-19 11 2 19 12 18 23-3 27-6 55-6 83 0 38 3 74 9 110 1 11-6 21-17 23-1 0-1 0-3 0zm1389-218c-10 0-18-7-19-16-10-64-28-127-56-186-4-10 0-23 10-27s22 0 26 10c29 62 49 128 58 196 2 11-5 21-16 22-2 1-2 1-3 1zm-1341-173c-3 0-6 0-9-2-9-4-15-16-11-26 28-63 63-122 107-175 7-8 20-10 28-3s10 20 3 28c-42 50-75 106-102 165-1 9-8 13-16 13zm1176-185c-6 0-11-3-15-7-44-48-92-92-148-126-9-6-12-18-5-28 5-10 18-13 28-6 58 38 109 82 155 134 7 8 7 21-1 27-6 5-10 6-14 6zm-924-119c-7 0-12-3-16-9-6-9-4-22 5-27 57-39 120-70 185-91 11-3 22 3 25 13 3 11-3 22-13 25-61 19-120 48-173 84-6 3-10 5-13 5zm591-93c-2 0-5 0-6-2-68-19-139-29-210-26-11 0-21-9-21-20s9-20 20-20c75-2 150 8 222 29 11 2 17 14 14 25-3 8-10 14-19 14zm-198 1508c-469 0-852-384-852-853 0-471 383-854 852-854 471 0 853 383 853 853 1 470-382 854-853 854zm0-1667c-448 0-812 365-812 814s365 814 814 814c448 0 813-365 813-814-1-449-366-814-815-814zm0 739c6 0 10 1 14 6l289 288c25 25 67 25 92 0 12-12 19-27 19-45s-7-34-19-46l-349-349c-25-25-67-25-91 0l-349 349c-13 12-19 28-19 46s6 33 19 45c25 25 67 25 92 0l288-288c5-5 10-6 14-6z" fill="#013b65"/><path d="m1203 1133c-26 0-54-10-73-30l-277-277-275 277c-40 40-107 40-148 0-20-20-31-46-31-74s11-54 31-74l350-350c40-40 107-40 148 0l350 350c20 20 31 46 31 74s-11 54-31 74c-21 19-48 30-75 30zm-340 403c65-2 129-11 192-29 11-3 22 2 25 14 2 11-3 22-14 25-65 19-134 29-203 30-11 0-19-8-19-19s8-20 19-21zm-178 0c-2 10-11 15-19 15-2 0-4 0-6-1-66-18-129-46-187-82-10-6-13-18-7-28 5-10 18-12 28-7 55 35 115 61 177 78 12 3 17 14 14 25zm539-83c-5-10-4-23 6-28 54-36 102-79 144-128 7-8 20-10 28-3s10 20 3 28c-45 53-96 99-153 136-4 1-8 3-11 3-7 0-13-3-17-8zm-879-116c-5 4-10 6-14 6-5 0-11-3-15-7-46-51-85-108-114-171-4-10 0-22 10-26 9-4 22 0 26 9 28 59 64 113 108 162 7 8 7 20-1 27zm1151-177c-2 0-5 0-8-2-10-4-15-17-10-26 27-60 45-122 53-186 1-11 11-18 22-17s18 11 17 22c-10 68-28 135-56 197-4 7-11 12-18 12zm-1336-173c-9 0-18-7-19-16-6-39-10-78-10-117 0-29 2-60 6-87 1-12 11-20 22-19 11 2 19 12 18 23-3 27-6 55-6 83 0 38 3 74 9 110 1 11-6 21-17 23zm1389-218c-10 0-18-7-19-16-10-64-28-127-56-186-4-10 0-23 10-27s22 0 26 10c29 62 49 128 58 196 2 11-5 21-16 22-2 1-2 1-3 1zm-1341-173c-3 0-6 0-9-2-9-4-15-16-11-26 28-63 63-122 107-175 7-8 20-10 28-3s10 20 3 28c-42 50-75 106-102 165-1 9-8 13-16 13zm1176-185c-6 0-11-3-15-7-44-48-92-92-148-126-9-6-12-18-5-28 5-10 18-13 28-6 58 38 109 82 155 134 7 8 7 21-1 27-6 5-10 6-14 6zm-924-119c-7 0-12-3-16-9-6-9-4-22 5-27 57-39 120-70 185-91 11-3 22 3 25 13 3 11-3 22-13 25-61 19-120 48-173 84-6 3-10 5-13 5zm591-93c-2 0-5 0-6-2-68-19-139-29-210-26-11 0-21-9-21-20s9-20 20-20c75-2 150 8 222 29 11 2 17 14 14 25-3 8-10 14-19 14zm-1010 655c0 449 365 814 814 814 448 0 813-365 813-814-1-449-366-814-815-814-448 0-812 365-812 814z" fill="#00c8d0"/></g></svg>